<svg id="Iconly_Light-Outline_Home" data-name="Iconly/Light-Outline/Home" xmlns="http://www.w3.org/2000/svg" xmlns:xlink="http://www.w3.org/1999/xlink" width="24" height="24" viewBox="0 0 24 24">
  <defs>
    <clipPath id="clip-path">
      <path id="Clip_2" data-name="Clip 2" d="M0,0H20.5V21.5H0Z" transform="translate(2 1)" clip-rule="evenodd"/>
    </clipPath>
  </defs>
  <g id="Home">
    <g id="Clip_2-2" data-name="Clip 2" clip-path="url(#clip-path)">
      <path id="Fill_1" data-name="Fill 1" d="M18.277,22.505H16.353A1.973,1.973,0,0,1,14.4,20.536V17.46a.677.677,0,0,0-.684-.669H10.831a.675.675,0,0,0-.674.669v3.066a.742.742,0,0,1-.031.215,1.983,1.983,0,0,1-1.979,1.764H6.223A4.21,4.21,0,0,1,2,18.318V9.6A3.158,3.158,0,0,1,3.259,7.1L9.794,1.855a3.913,3.913,0,0,1,4.88,0L21.256,7.1A3.15,3.15,0,0,1,22.5,9.582v8.735A4.21,4.21,0,0,1,18.277,22.505Zm-7.451-7.214h2.891A2.179,2.179,0,0,1,15.9,17.46v3.076a.471.471,0,0,0,.47.469h1.906A2.708,2.708,0,0,0,21,18.318V9.593a1.672,1.672,0,0,0-.667-1.309L13.739,3.027a2.415,2.415,0,0,0-3.01,0L4.181,8.283A1.681,1.681,0,0,0,3.5,9.61v8.707a2.708,2.708,0,0,0,2.723,2.687H8.147a.486.486,0,0,0,.491-.479.777.777,0,0,1,.019-.171v-2.9A2.182,2.182,0,0,1,10.826,15.291Z" fill="#a9abad"/>
    </g>
  </g>
</svg>
